<svg width="400" height="400" viewBox="0 0 400 400" fill="none" xmlns="http://www.w3.org/2000/svg">
<g clip-path="url(#clip0_1411_1149)">
<circle cx="200" cy="200" r="200" fill="black"/>
<path d="M183.153 242H151.665C138.993 242 128.625 231.632 128.625 218.96V155.6H145.521V218.704C145.521 222.16 148.465 225.104 151.921 225.104H178.033L183.153 242ZM259.9 192.976C259.9 193.104 259.9 193.232 259.9 193.36V192.976ZM259.9 178.256C259.9 178.384 259.9 178.512 259.9 178.64V178.256ZM259.9 178.64V192.976C259.9 193.104 259.9 193.232 259.9 193.36C259.644 205.904 249.404 216.016 236.86 216.016H213.052L218.172 198.992H236.476C240.06 198.992 242.876 196.176 242.876 192.592V179.024C242.876 175.44 240.06 172.624 236.476 172.624H206.396V242H189.5V155.6H236.86C249.404 155.6 259.644 165.712 259.9 178.256C259.9 178.384 259.9 178.512 259.9 178.64Z" fill="white"/>
<circle cx="200" cy="200" r="156" stroke="#454A75" stroke-width="20"/>
<mask id="mask0_1411_1149" style="mask-type:alpha" maskUnits="userSpaceOnUse" x="34" y="34" width="332" height="332">
<circle cx="200" cy="200" r="156" stroke="#2474CC" stroke-width="20"/>
</mask>
<g mask="url(#mask0_1411_1149)">
<path d="M329 72.5L34.5 367L22 288.5L12 169.5L75.5 62L203 14L329 72.5Z" fill="#2474CC"/>
</g>
</g>
<defs>
<clipPath id="clip0_1411_1149">
<rect width="400" height="400" fill="white"/>
</clipPath>
</defs>
</svg>
